<svg width="30" height="32" viewBox="0 0 30 32" fill="none" xmlns="http://www.w3.org/2000/svg">
<path d="M5.75607 23.6232C5.66097 23.7155 5.58627 23.8269 5.53631 23.9508C5.48636 24.0748 5.46214 24.2088 5.46508 24.3452C5.46801 24.4816 5.49803 24.6176 5.5534 24.7453C5.60876 24.873 5.68837 24.9899 5.78759 25.0891C5.88682 25.1883 6.00367 25.2679 6.13137 25.3233C6.25908 25.3787 6.39507 25.4087 6.53147 25.4116C6.66786 25.4146 6.80192 25.3903 6.92587 25.3404C7.04982 25.2904 7.16118 25.2157 7.25347 25.1206L24.224 8.15007C24.3191 8.05777 24.3938 7.94642 24.4438 7.82247C24.4938 7.69852 24.518 7.56445 24.515 7.42806C24.5121 7.29167 24.4821 7.15567 24.4267 7.02797C24.3713 6.90027 24.2917 6.78341 24.1925 6.68419C24.0933 6.58497 23.9764 6.50536 23.8487 6.44999C23.721 6.39463 23.585 6.3646 23.4486 6.36167C23.3122 6.35874 23.1782 6.38295 23.0542 6.43291C22.9303 6.48286 22.8189 6.55756 22.7266 6.65267L5.75607 23.6232Z" fill="#FBFBFB"/>
<path d="M22.7783 25.0891C22.8706 25.1842 22.982 25.2589 23.1059 25.3089C23.2299 25.3589 23.3639 25.3831 23.5003 25.3801C23.6367 25.3772 23.7727 25.3472 23.9004 25.2918C24.0281 25.2365 24.145 25.1568 24.2442 25.0576C24.3434 24.9584 24.423 24.8415 24.4784 24.7138C24.5338 24.5861 24.5638 24.4501 24.5667 24.3137C24.5697 24.1774 24.5454 24.0433 24.4955 23.9193C24.4455 23.7954 24.3708 23.684 24.2757 23.5917L7.30516 6.62118C7.21286 6.52608 7.10151 6.45138 6.97756 6.40142C6.85361 6.35146 6.71954 6.32725 6.58315 6.33018C6.44676 6.33312 6.31076 6.36314 6.18306 6.41851C6.05536 6.47387 5.9385 6.55348 5.83928 6.6527C5.74006 6.75192 5.66045 6.86878 5.60508 6.99648C5.54972 7.12418 5.51969 7.26018 5.51676 7.39657C5.51383 7.53296 5.53804 7.66703 5.588 7.79098C5.63795 7.91493 5.71265 8.02629 5.80776 8.11858L22.7783 25.0891Z" fill="#FBFBFB"/>
</svg>
