<svg width="66" height="66" viewBox="0 0 66 66" fill="none" xmlns="http://www.w3.org/2000/svg">
<path d="M9.79688 62.3906H64.9688V8.76562H10.8281V1.03125H9.79688C4.95 1.03125 1.03125 4.95 1.03125 9.79688V53.625C1.03125 58.4719 4.95 62.3906 9.79688 62.3906ZM3.09375 9.79688C3.09375 6.44531 5.56875 3.66094 8.76562 3.19687V23.9766C8.76562 33 8.76562 42.0234 8.76562 44.9109C6.49687 45.1688 4.48594 46.3031 3.09375 47.9531V9.79688ZM3.09375 53.625C3.09375 49.9125 6.08437 46.9219 9.79688 46.9219H10.8281V10.8281H62.9062V60.3281H9.79688C6.08437 60.3281 3.09375 57.3375 3.09375 53.625Z" fill="#C0845E"/>
<path d="M57.75 26.2969H40.2188V25.2656H38.1562V28.3594H55.6875V53.1094H40.2188V34.5469H38.1562V53.1094H18.0469V28.3594H29.9062V24.75H27.8438V26.2969H18.0469V18.0469H38.1562V19.0781H40.2188V15.9844H15.9844V55.1719H57.75V26.2969Z" fill="#C0845E"/>
</svg>
