<svg width="53" height="60" viewBox="0 0 53 60" fill="none" xmlns="http://www.w3.org/2000/svg">
<path fill-rule="evenodd" clip-rule="evenodd" d="M51.8734 12.3194C51.8734 44.0323 31.524 59 26.4367 59C21.3494 59 1 44.0323 1 12.3194C1 2.12258 16.8273 1 26.4367 1C36.0461 1 51.8734 2.02903 51.8734 12.3194Z" stroke="#C0845E" stroke-width="2"/>
<path fill-rule="evenodd" clip-rule="evenodd" d="M26.4369 55.2581C22.8569 54.5097 4.86279 41.6001 4.86279 12.3194C4.86279 8.76459 9.85592 4.742 26.4369 4.742C43.0178 4.742 48.011 8.76459 48.011 12.3194C48.011 41.6001 30.0169 54.5097 26.4369 55.2581Z" stroke="#C0845E" stroke-width="2"/>
<path fill-rule="evenodd" clip-rule="evenodd" d="M36.7998 23.5452L34.1619 20.9258C33.785 20.5517 33.2198 20.5517 32.8429 20.9258L25.4946 28.2226L22.1972 24.9484C21.8204 24.5742 21.2551 24.5742 20.8783 24.9484L18.2404 27.5678C17.8636 27.942 17.8636 28.5033 18.2404 28.8775L24.9293 35.5194C25.3061 35.8936 25.8714 35.8936 26.2482 35.5194L36.894 24.9484C37.1766 24.4807 37.1766 23.9194 36.7998 23.5452Z" stroke="#C0845E" stroke-width="2"/>
</svg>
