<svg width="64" height="60" viewBox="0 0 64 60" fill="none" xmlns="http://www.w3.org/2000/svg">
<g clip-path="url(#clip0_155_96)">
<path fill-rule="evenodd" clip-rule="evenodd" d="M61.7999 54.1H58.9999V22.7C58.9999 20.5 51.9999 14.8 51.9999 14.8C51.9999 14.8 37.9999 20.5 37.9999 22.7V58H31.9999V9.9C31.9999 7.7 22.9999 2 22.9999 2C22.9999 2 4.99993 7.7 4.99993 9.9V54.1H1.99993C0.899925 54.1 0.999925 55 0.999925 56.1C0.999925 57.2 0.899925 58.1 1.99993 58.1H61.7999C63.1999 58.1 62.9999 57.2 62.9999 56.1C62.9999 55 63.1999 54.1 61.7999 54.1Z" stroke="#C0845E" stroke-width="2"/>
<path d="M23 2V51.1" stroke="#C0845E" stroke-width="2"/>
<path d="M8 13.8L15 10.8" stroke="#C0845E" stroke-width="2"/>
<path d="M8 19.7L15 16.7" stroke="#C0845E" stroke-width="2"/>
<path d="M8 24.6L15 21.6" stroke="#C0845E" stroke-width="2"/>
<path d="M8 29.5L15 26.6" stroke="#C0845E" stroke-width="2"/>
<path d="M8 35.4L15 32.5" stroke="#C0845E" stroke-width="2"/>
<path d="M8 40.3L15 37.4" stroke="#C0845E" stroke-width="2"/>
<path d="M8 46.2L15 43.3" stroke="#C0845E" stroke-width="2"/>
<path d="M8 51.1L15 48.2" stroke="#C0845E" stroke-width="2"/>
<path d="M17 9.90002L20 8.90002" stroke="#C0845E" stroke-width="2"/>
<path d="M17 15.8L20 14.8" stroke="#C0845E" stroke-width="2"/>
<path d="M17 20.7L20 19.7" stroke="#C0845E" stroke-width="2"/>
<path d="M17 25.6L20 24.6" stroke="#C0845E" stroke-width="2"/>
<path d="M17 31.5L20 30.5" stroke="#C0845E" stroke-width="2"/>
<path d="M17 36.4L20 35.4" stroke="#C0845E" stroke-width="2"/>
<path d="M17 42.3L20 41.3" stroke="#C0845E" stroke-width="2"/>
<path d="M17 47.2L20 46.2" stroke="#C0845E" stroke-width="2"/>
<path d="M52 14.8V51.1" stroke="#C0845E" stroke-width="2"/>
<path d="M41 25.6L48 22.6" stroke="#C0845E" stroke-width="2"/>
<path d="M41 30.5L48 27.5" stroke="#C0845E" stroke-width="2"/>
<path d="M41 35.4L48 32.5" stroke="#C0845E" stroke-width="2"/>
<path d="M41 41.3L48 38.3" stroke="#C0845E" stroke-width="2"/>
<path d="M41 46.2L48 43.3" stroke="#C0845E" stroke-width="2"/>
</g>
<defs>
<clipPath id="clip0_155_96">
<rect width="64" height="60" fill="white"/>
</clipPath>
</defs>
</svg>
