<svg width="59" height="65" viewBox="0 0 59 65" fill="none" xmlns="http://www.w3.org/2000/svg">
<path fill-rule="evenodd" clip-rule="evenodd" d="M55 44.6C47.2 43.1 45.5 39.9 44.5 38.9C48 37.2 50.8 34.6 50.8 31.7C45.4 31.6 40.1 28.7 37.2 25.2C41.1 24 43.8 22 43.8 19.2C28.1 14 31.2 1.09998 29.1 1.09998C27 1.09998 28.2 15.5 13.1 20.7C14.8 22.8 16.9 23.8 20.5 25.1C17.6 28.2 12.8 31.7 6.9 31.8C6.9 34.6 9.6 37.2 12.8 38.8C12 40.5 9.8 42.7 3 44.7C9 49.3 19.2 51.4 26 51.4V62C26 63.1 26.2 63 27.7 63H30.4C31.9 63 32.1 63.1 32.1 62V51.2C39.2 51.2 49.9 49.1 55 44.6Z" stroke="#C0845E" stroke-width="2"/>
</svg>
