<svg width="82" height="74" viewBox="0 0 82 74" fill="none" xmlns="http://www.w3.org/2000/svg">
<path d="M78.0953 63.4842H62.4763H76.7938V59.7192C76.7938 58.2912 75.6223 57.1227 74.1906 57.1227H70.2858V35.0526H72.7588C74.1906 35.0526 75.362 33.8842 75.362 32.4561V27.7824C75.362 26.3543 74.1906 24.9263 72.7588 24.9263H65.9476H71.4572V23.628L41.0001 2.59644L10.6731 23.628V24.9263H17.0288H9.37154C7.93979 24.9263 6.76836 26.0947 6.76836 27.5228V32.1964C6.76836 33.6245 7.93979 35.0526 9.37154 35.0526H13.1461V56.8631H8.06995C6.6382 56.8631 5.46677 58.0315 5.46677 59.4596V63.2245H20.8255H4.16519C2.73344 63.2245 1.56201 64.3929 1.56201 65.821V69.8456C1.56201 71.2736 2.73344 72.442 4.16519 72.442H78.0953C79.5271 72.442 80.6985 71.2736 80.6985 69.8456V65.821C80.6985 64.6526 79.5271 63.4842 78.0953 63.4842Z" stroke="#C0845E" stroke-width="2" stroke-linejoin="round"/>
<path d="M41.6509 18.1753C43.8074 18.1753 45.5556 16.4316 45.5556 14.2806C45.5556 12.1296 43.8074 10.3859 41.6509 10.3859C39.4943 10.3859 37.7461 12.1296 37.7461 14.2806C37.7461 16.4316 39.4943 18.1753 41.6509 18.1753Z" stroke="#C0845E" stroke-width="2" stroke-linejoin="round"/>
<path d="M26.0318 35.0526H20.8254V57.1228H26.0318V35.0526Z" stroke="#C0845E" stroke-width="2" stroke-linejoin="round"/>
<path d="M37.7461 35.0526H32.5398V57.1228H37.7461V35.0526Z" stroke="#C0845E" stroke-width="2" stroke-linejoin="round"/>
<path d="M50.762 35.0526H45.5557V57.1228H50.762V35.0526Z" stroke="#C0845E" stroke-width="2" stroke-linejoin="round"/>
<path d="M62.4764 35.0526H57.27V57.1228H62.4764V35.0526Z" stroke="#C0845E" stroke-width="2" stroke-linejoin="round"/>
</svg>
