<svg width="60" height="60" viewBox="0 0 60 60" fill="none" xmlns="http://www.w3.org/2000/svg">
<path d="M29.9999 2.40002C45.2435 2.40002 57.5999 14.7564 57.5999 30C57.5999 45.2436 45.2435 57.6 29.9999 57.6C14.7563 57.6 2.3999 45.2436 2.3999 30C2.3999 14.7564 14.7563 2.40002 29.9999 2.40002ZM39.5207 41.25C40.0283 39.6924 42.4067 24.1692 42.7007 21.1104C42.7895 20.184 42.4967 19.5684 41.9231 19.2936C41.2295 18.96 40.2023 19.1268 39.0107 19.5564C37.3763 20.1456 16.4819 29.0172 15.2747 29.5308C14.1299 30.0168 13.0475 30.5472 13.0475 31.3152C13.0475 31.8552 13.3679 32.1588 14.2511 32.4744C15.1703 32.802 17.4851 33.504 18.8519 33.8808C20.1683 34.2444 21.6671 33.9288 22.5071 33.4068C23.3975 32.8536 33.6731 25.9776 34.4111 25.3752C35.1479 24.7728 35.7359 25.5444 35.1335 26.148C34.5311 26.7504 27.4775 33.5964 26.5475 34.5444C25.4183 35.6952 26.2199 36.888 26.9771 37.3656C27.8423 37.9104 34.0643 42.084 35.0015 42.7536C35.9387 43.4232 36.8891 43.7268 37.7591 43.7268C38.6291 43.7268 39.0875 42.5808 39.5207 41.25Z" fill="#FBFBFB"/>
</svg>
