<svg width="66" height="66" viewBox="0 0 66 66" fill="none" xmlns="http://www.w3.org/2000/svg">
<path d="M3.09375 53.625H1.03125C1.03125 58.4719 4.95 62.3906 9.79688 62.3906H64.9688V8.76562H10.8281V1.03125H9.79688C4.95 1.03125 1.03125 4.95 1.03125 9.79688V53.625H3.09375C3.09375 49.9125 6.08437 46.9219 9.79688 46.9219H10.8281V10.8281H62.9062V60.3281H9.79688C6.08437 60.3281 3.09375 57.3375 3.09375 53.625ZM8.76562 23.9766C8.76562 33 8.76562 42.0234 8.76562 44.9109C6.49687 45.1688 4.48594 46.3031 3.09375 47.9531V9.79688C3.09375 6.44531 5.56875 3.66094 8.76562 3.19687V23.9766Z" fill="#C0845E"/>
<path d="M13.9219 1.03125V6.1875H58.9875L65.0203 3.60938L58.9875 1.03125H13.9219ZM15.9844 3.09375H19.0781V4.125H15.9844V3.09375ZM58.575 4.125H21.1406V3.09375H58.575L59.7609 3.60938L58.575 4.125Z" fill="#C0845E"/>
<path d="M23.9766 37.3828V52.5938H49.2422V37.3828H47.1797V50.5312H26.0391V37.3828H23.9766Z" fill="#C0845E"/>
<path d="M43.3125 22.1719V25.8844L36.6093 19.1813L20.4187 35.3719L21.8625 36.8156L36.6093 22.0688L45.375 30.8344V24.2344H47.1796V32.6391L51.3562 36.8156L52.8 35.3719L49.2421 31.8141V22.1719H43.3125Z" fill="#C0845E"/>
</svg>
