<svg width="519" height="422" viewBox="0 0 519 422" fill="none" xmlns="http://www.w3.org/2000/svg">
<g clip-path="url(#clip0_116_105)">
<path d="M373.031 365.192H31.6266C18.6516 365.192 8.10938 354.642 8.10938 341.658V32.4615C8.10938 19.4769 18.6516 8.92691 31.6266 8.92691H151.645L226.252 81.9654L193.814 49.5038H482.508C508.458 49.5038 510.891 60.8654 510.891 73.85V252.388V341.658C510.891 355.454 508.458 366.004 482.508 366.004H429.797" stroke="#FBFBFB" stroke-width="2"/>
<path d="M359.245 366.004H329.241C326.808 366.004 324.375 364.381 324.375 361.135L387.628 263.75C389.25 261.315 390.061 258.881 392.494 258.881H401.414C403.036 258.881 404.658 260.504 406.28 263.75L471.155 360.323C471.155 362.758 468.722 365.192 466.289 365.192H438.717" stroke="#FBFBFB" stroke-width="2"/>
<path d="M429.797 349.773V422" stroke="#FBFBFB" stroke-width="2"/>
<path d="M364.922 349.773V422" stroke="#FBFBFB" stroke-width="2"/>
</g>
<defs>
<clipPath id="clip0_116_105">
<rect width="519" height="422" fill="white"/>
</clipPath>
</defs>
</svg>
