<svg width="30" height="45" viewBox="0 0 30 45" fill="none" xmlns="http://www.w3.org/2000/svg">
<path d="M2.99996 10.4999C2.86745 10.4971 2.73589 10.5338 2.61292 10.6079C2.48995 10.6821 2.37803 10.7921 2.28366 10.9317C2.18929 11.0712 2.11435 11.2375 2.0632 11.4209C2.01206 11.6043 1.98572 11.8011 1.98572 11.9999C1.98572 12.1987 2.01206 12.3955 2.0632 12.5789C2.11435 12.7623 2.18929 12.9286 2.28366 13.0681C2.37803 13.2077 2.48995 13.3178 2.61292 13.3919C2.73589 13.466 2.86745 13.5027 2.99996 13.4999H27C27.1325 13.5027 27.264 13.466 27.387 13.3919C27.51 13.3178 27.6219 13.2077 27.7163 13.0681C27.8106 12.9286 27.8856 12.7623 27.9367 12.5789C27.9879 12.3955 28.0142 12.1987 28.0142 11.9999C28.0142 11.8011 27.9879 11.6043 27.9367 11.4209C27.8856 11.2375 27.8106 11.0712 27.7163 10.9317C27.6219 10.7921 27.51 10.6821 27.387 10.6079C27.264 10.5338 27.1325 10.4971 27 10.4999H2.99996ZM2.99996 20.9999C2.86745 20.9971 2.73589 21.0338 2.61292 21.1079C2.48995 21.1821 2.37803 21.2921 2.28366 21.4317C2.18929 21.5712 2.11435 21.7375 2.0632 21.9209C2.01206 22.1043 1.98572 22.3011 1.98572 22.4999C1.98572 22.6987 2.01206 22.8955 2.0632 23.0789C2.11435 23.2623 2.18929 23.4286 2.28366 23.5681C2.37803 23.7077 2.48995 23.8178 2.61292 23.8919C2.73589 23.966 2.86745 24.0027 2.99996 23.9999H27C27.1325 24.0027 27.264 23.966 27.387 23.8919C27.51 23.8178 27.6219 23.7077 27.7163 23.5681C27.8106 23.4286 27.8856 23.2623 27.9367 23.0789C27.9879 22.8955 28.0142 22.6987 28.0142 22.4999C28.0142 22.3011 27.9879 22.1043 27.9367 21.9209C27.8856 21.7375 27.8106 21.5712 27.7163 21.4317C27.6219 21.2921 27.51 21.1821 27.387 21.1079C27.264 21.0338 27.1325 20.9971 27 20.9999H2.99996ZM2.99996 31.4999C2.86745 31.4971 2.73589 31.5338 2.61292 31.6079C2.48995 31.6821 2.37803 31.7921 2.28366 31.9317C2.18929 32.0712 2.11435 32.2375 2.0632 32.4209C2.01206 32.6043 1.98572 32.8011 1.98572 32.9999C1.98572 33.1987 2.01206 33.3955 2.0632 33.5789C2.11435 33.7623 2.18929 33.9286 2.28366 34.0681C2.37803 34.2077 2.48995 34.3178 2.61292 34.3919C2.73589 34.466 2.86745 34.5027 2.99996 34.4999H27C27.1325 34.5027 27.264 34.466 27.387 34.3919C27.51 34.3178 27.6219 34.2077 27.7163 34.0681C27.8106 33.9286 27.8856 33.7623 27.9367 33.5789C27.9879 33.3955 28.0142 33.1987 28.0142 32.9999C28.0142 32.8011 27.9879 32.6043 27.9367 32.4209C27.8856 32.2375 27.8106 32.0712 27.7163 31.9317C27.6219 31.7921 27.51 31.6821 27.387 31.6079C27.264 31.5338 27.1325 31.4971 27 31.4999H2.99996Z" fill="black"/>
</svg>
