<svg width="64" height="64" viewBox="0 0 64 64" fill="none" xmlns="http://www.w3.org/2000/svg">
<path d="M32.1 34.7L54.8 23.5C55 23.4 55 23.2 54.8 23.1L32.1 12C32 12 32 12 31.9 12L9.20005 23.1C9.00005 23.2 9.00005 23.4 9.20005 23.5L31.9 34.7C32 34.8 32 34.8 32.1 34.7Z" stroke="#C0845E" stroke-width="2" stroke-miterlimit="10"/>
<path d="M18.1001 30.3V40.7001H25.6001C27.9001 40.7001 30.1001 41.5 31.8001 43.1H32.0001C33.7001 41.6 35.9001 40.7001 38.2001 40.7001H45.9001V30.3" stroke="#C0845E" stroke-width="2" stroke-miterlimit="10"/>
<path d="M51.2001 28.1V44.7C50.3001 46.2 49.8 47.9 49.8 49.7V52.1H54V46" stroke="#C0845E" stroke-width="2" stroke-miterlimit="10"/>
</svg>
