<svg width="122" height="99" viewBox="0 0 122 99" fill="none" xmlns="http://www.w3.org/2000/svg">
<g clip-path="url(#clip0_184_608)">
<path d="M87.6875 85.6731H7.43438C4.38438 85.6731 1.90625 83.1981 1.90625 80.1519V7.61539C1.90625 4.56924 4.38438 2.09424 7.43438 2.09424H35.6469L53.1844 19.2289L45.5594 11.6135H113.422C119.522 11.6135 120.094 14.2789 120.094 17.325V59.2096V80.1519C120.094 83.3885 119.522 85.8635 113.422 85.8635H101.031" stroke="#231D1C" stroke-width="2"/>
<path d="M84.4469 85.8634H77.3937C76.8219 85.8634 76.25 85.4827 76.25 84.7211L91.1187 61.875C91.5 61.3038 91.6906 60.7327 92.2625 60.7327H94.3594C94.7406 60.7327 95.1219 61.1134 95.5031 61.875L110.753 84.5307C110.753 85.1019 110.181 85.673 109.609 85.673H103.128" stroke="#231D1C" stroke-width="2"/>
<path d="M101.031 82.0558V99" stroke="#231D1C" stroke-width="2"/>
<path d="M85.7812 82.0558V99" stroke="#231D1C" stroke-width="2"/>
</g>
<defs>
<clipPath id="clip0_184_608">
<rect width="122" height="99" fill="white"/>
</clipPath>
</defs>
</svg>
