<svg width="61" height="65" viewBox="0 0 61 65" fill="none" xmlns="http://www.w3.org/2000/svg">
<g clip-path="url(#clip0_158_147)">
<path d="M58.9999 32V61.9C58.9999 63.1 58.0999 64 56.8999 64H3.9999C2.8999 64 1.8999 63.1 1.8999 61.9V32" stroke="#C0845E" stroke-width="2"/>
<path d="M14 38V55.9" stroke="#C0845E" stroke-width="2"/>
<path d="M48 38V55.9" stroke="#C0845E" stroke-width="2"/>
<path d="M9 42H53" stroke="#C0845E" stroke-width="2"/>
<path d="M9 52H53" stroke="#C0845E" stroke-width="2"/>
<path fill-rule="evenodd" clip-rule="evenodd" d="M59 31.9H2V25.2C2 24.1 2.9 23.1 4.1 23.1H57C58.1 23.1 59.1 24 59.1 25.2V31.9H59Z" stroke="#C0845E" stroke-width="2"/>
<path d="M7.5 31.3L12.7 23.1" stroke="#C0845E" stroke-width="2"/>
<path d="M19.8999 31.3L24.9999 23.1" stroke="#C0845E" stroke-width="2"/>
<path d="M33.3 31.3L38.4001 23.1" stroke="#C0845E" stroke-width="2"/>
<path d="M45.5999 31.3L50.7999 23.1" stroke="#C0845E" stroke-width="2"/>
<path fill-rule="evenodd" clip-rule="evenodd" d="M56.4 2.6C56.2 1.5 55.1 0.799995 54 0.999995L2.69997 12C1.59997 12.2 0.899971 13.3 1.09997 14.4L2.59997 21.4C2.79997 22.5 3.89997 23.2 4.99997 23L56.3 12C57.4 11.8 58.1 10.7 57.9 9.6L56.4 2.6Z" stroke="#C0845E" stroke-width="2"/>
<path d="M13.5999 9.40002L9.3999 21.7" stroke="#C0845E" stroke-width="2"/>
<path d="M24.9999 6.69995L20.8999 19" stroke="#C0845E" stroke-width="2"/>
<path d="M37.1999 4.59998L33.0999 16.9" stroke="#C0845E" stroke-width="2"/>
<path d="M49.6999 1.59998L45.5999 13.9" stroke="#C0845E" stroke-width="2"/>
</g>
<defs>
<clipPath id="clip0_158_147">
<rect width="61" height="65" fill="white"/>
</clipPath>
</defs>
</svg>
