<svg width="63" height="64" viewBox="0 0 63 64" fill="none" xmlns="http://www.w3.org/2000/svg">
<path fill-rule="evenodd" clip-rule="evenodd" d="M41.6 44.3C39 43 35.6 40.6 35.6 38.5C35.6 37.4 36 36.7 36.4 36.5C41.4 33.7 43.1 24.5 43.4 24.5C45.1 24.5 46.3 20.2 46.3 17.4C46.3 15.1 45.6 15.2 44.4 14.5V14.2C44.4 6.7 38.5 1 31.1 1C23.8 1 17.5 7 17.5 14.4V14.7C16.3 15.4 15.8 15.8 15.8 18C15.8 20.9 16.8 24.9 18.5 24.9C18.8 24.9 21 33.7 25.8 36.7C26.1 36.9 26.6 37.4 26.6 38.4C26.6 40.8 23.4 42.9 20.7 44.3C17.4 46 1 47.4 1 63H61C61 47.4 45.7 46.4 41.6 44.3Z" stroke="#C0845E" stroke-width="2"/>
</svg>
